<svg xmlns="http://www.w3.org/2000/svg" width="22" height="26" viewBox="0 0 22 26"><g><g><path fill="#fff" d="M15.498 12.873c2.42 2.163 3.966 5.97 4.005 10.146h1.441c.571 0 1.034.488 1.034 1.09v.798c0 .6-.463 1.09-1.034 1.09H1.014c-.571 0-1.034-.49-1.034-1.09v-.798c0-.602.463-1.09 1.034-1.09h1.441c.04-4.178 1.584-7.985 4.005-10.146-2.365-2.111-3.895-5.805-4.004-9.849H1.014c-.571 0-1.034-.487-1.034-1.09v-.841C-.02.49.443.003 1.014.003h19.93c.571 0 1.034.488 1.034 1.09v.841c0 .603-.463 1.09-1.034 1.09h-1.443c-.109 4.044-1.64 7.738-4.003 9.85zm-3.26-.014c0-.394.21-.752.545-.924l.387-.197c2.557-1.32 4.308-4.804 4.436-8.714H4.353c.127 3.91 1.877 7.396 4.436 8.715l.386.193c.335.174.547.535.547.928 0 .394-.212.756-.547.928l-.386.205c-2.622 1.353-4.392 4.937-4.438 9.026h13.255c-.046-4.088-1.814-7.674-4.437-9.026l-.387-.21a1.033 1.033 0 0 1-.544-.924zm-.98 5.002c2.297 0 4.177 1.824 4.484 4.134H6.773c.308-2.31 2.186-4.134 4.485-4.134zm-.287-6.698c-1.345 0-2.535-.63-3.362-1.606h6.724c-.828.977-2.017 1.606-3.362 1.606z"/></g></g></svg>