<svg xmlns="http://www.w3.org/2000/svg" width="16" height="30" viewBox="0 0 16 30"><g><g><path fill="#fff" d="M12.213 13.721c-1.136-.65-2.344-1.146-3.54-1.66-.693-.298-1.357-.645-1.943-1.128-1.154-.954-.932-2.503.419-3.117.382-.173.783-.229 1.19-.253a8.761 8.761 0 0 1 4.472.916c.706.354.939.242 1.178-.52.251-.805.46-1.623.694-2.435.155-.545-.036-.905-.533-1.134a11.081 11.081 0 0 0-2.822-.874c-1.28-.204-1.28-.21-1.285-1.542C10.037.096 10.037.096 8.219.096c-.263 0-.526-.006-.79 0-.848.025-.992.18-1.016 1.066-.011.397 0 .793-.006 1.196-.005 1.177-.011 1.158-1.1 1.568-2.63.99-4.257 2.85-4.43 5.824-.156 2.633 1.172 4.411 3.258 5.706 1.286.8 2.709 1.27 4.072 1.896.532.242 1.04.52 1.483.905 1.31 1.121 1.07 2.986-.484 3.692-.831.378-1.71.472-2.613.354-1.393-.18-2.727-.558-3.982-1.233-.736-.397-.95-.291-1.202.533a67.328 67.328 0 0 0-.598 2.15c-.257.966-.161 1.196.73 1.648 1.136.57 2.35.86 3.587 1.065.969.161.998.205 1.01 1.246.006.47.006.948.012 1.419.006.595.281.941.873.954.67.012 1.346.012 2.015-.006.55-.013.831-.323.831-.899 0-.644.03-1.295.006-1.939-.03-.657.245-.992.855-1.165a6.74 6.74 0 0 0 3.522-2.342c2.56-3.222 1.584-7.937-2.039-10.013z"/></g></g></svg>