<svg xmlns="http://www.w3.org/2000/svg" width="30" height="30" viewBox="0 0 30 30"><g><g><path fill="#fff" d="M29.632 29.632c-.49.49-1.28.49-1.77 0l-7.211-7.206a12.576 12.576 0 0 1-8.008 2.859C5.657 25.285 0 19.622 0 12.643 0 5.663 5.657 0 12.643 0c6.979 0 12.642 5.663 12.642 12.643 0 3.042-1.077 5.834-2.865 8.013l7.212 7.213c.49.483.49 1.28 0 1.763zm-6.857-16.99c0-5.583-4.549-10.132-10.133-10.132C7.052 2.51 2.51 7.06 2.51 12.643c0 5.583 4.543 10.126 10.132 10.126 5.584 0 10.133-4.543 10.133-10.126z"/></g></g></svg>