<svg xmlns="http://www.w3.org/2000/svg" width="139" height="46" viewBox="0 0 139 46"><g><g><path fill="#ff5151" d="M48.57 41.946c-1.839.884-4.515 1.31-7.143 1.291-1.935-.014-3.606-.593-4.97-1.72-1.458-1.206-2.152-2.873-2.06-4.955.085-1.913.593-3.786 1.512-5.57a13.502 13.502 0 0 1 3.813-4.544c1.647-1.267 3.33-1.903 4.999-1.891 1.634.012 2.974.339 3.985.971 1.466.92 1.722 2.297 1.678 3.29-.104 2.344-1.322 4.265-3.621 5.71-2.145 1.347-4.42 2.022-6.762 2.004a13.68 13.68 0 0 1-1.396-.09c-.027 1.027.277 1.775.953 2.348.777.66 1.7.984 2.825.992 1.186.01 2.141-.21 2.888-.41 3.938-1.059 6.555-3.345 7.962-4.635.057-.686.123-1.424.201-2.231.385-4.007.56-6.303.639-6.832.076-.511.468-.865.468-.865.582-.423 1.17-.63 1.745-.612.47.014.91.043 1.261.202.188.085.397.233.458.765.1.866-.18 2.188-.5 4.36.284-.464.584-.918.9-1.362.748-1.056 1.65-1.906 2.682-2.523 1.042-.622 2.116-.92 3.191-.889 2.062.062 3.836 1.618 4.97 3.239.332-1.465.671-2.067.985-2.414.406-.46.907-.7 1.45-.692.394.007.628.045 1.38.333.421.16.814.663.734 1.578-.166 1.918-.524 3.607-.724 5.907l-.57 4.683c-.323 2.415 2.502-1.435 4.264-2.672.235-.969.566-1.957.992-2.958.86-2.027 2.084-3.763 3.634-5.158 1.619-1.457 3.39-2.189 5.262-2.175 2.724.02 4.542.985 5.404 2.87.667 1.46.955 3.328.857 5.55l-.004.053-.389 3.918c-.097 2.275.27 3.096.5 3.384l.028.037c.119.167.928.26 1.285.262 1.221.01 2.05-.887 2.65-1.709.169-1.985.575-4.452.888-7.254.32-2.619.332-4.337.562-5.074.178-.572.528-1.04.988-1.265.816-.4 2.041-.53 2.762-.027.188.13.453.553.52.792.223.794-.149 2.384-.438 4.624.139-.284.288-.58.447-.884.543-1.04 1.12-1.89 1.715-2.528.615-.66 1.408-1.22 2.357-1.665a6.81 6.81 0 0 1 3.088-.632c1.6.041 2.704.718 3.283 2.011.518 1.16.693 2.584.519 4.235a166.93 166.93 0 0 1-.546 4.545c-.19 1.41-.17 2.716.057 3.884.132 1.647 2.498.298 3.753-1.153.037-.043.079-.09.125-.14.002-.108.006-.216.01-.326.082-1.848.555-3.801 1.407-5.805.862-2.027 2.084-3.763 3.634-5.158 1.62-1.458 3.39-2.19 5.263-2.175 2.724.02 4.542.985 5.404 2.87.667 1.46.955 3.327.857 5.55l-.004.053-.39 3.918c-.097 2.275.353 3.005.595 3.28.329.375.862.398 1.218.403 1.336.018 2.091-1.623 3.137-1.025 1.032.59.823 1.266.633 1.78-.822 2.228-4.405 2.476-5.252 2.47-1.995-.015-2.837-.966-3.193-1.762-.306-.65-.526-1.466-.646-2.414-1.672 2.007-3.276 3.252-4.871 3.79-.999.342-2.157.512-3.438.502-1.478-.01-2.62-.6-3.396-1.75-.183-.27-.34-.57-.47-.898-.185.173-.353.328-.476.439-.696.628-2.275 1.997-4.807 1.967-1.488-.017-2.555-.787-3.094-2.168-.478-1.222-.65-2.702-.514-4.4.126-1.563.29-3.147.484-4.706.135-1.078.322-2.156.18-3.04-.146-.918-1.913-1.598-2.94.087-.836 1.372-1.124 2.876-1.63 4.575-2.08 6.977-2.831 8.556-3.592 9.077-.546.374-1.69.425-2.159.413-1.258-.032-1.448-.537-1.617-.825a2.896 2.896 0 0 1-.264-.616c-1.543 1.29-3.595 1.365-4.282 1.36-1.994-.015-2.837-.967-3.193-1.763-.306-.65-.525-1.466-.646-2.414-1.672 2.007-3.276 3.253-4.87 3.79-1 .342-2.158.512-3.439.503-1.478-.011-2.62-.6-3.396-1.75-.449-.666-.743-1.507-.88-2.514-1.564 2.043-4.044 3.747-6.708 3.707-1.667-.026-1.777-.986-1.804-1.976-.083-3.006.31-4.897.513-7.24.05-.58.102-1.12.154-1.623-2.013-.204-3.339-4.23-5.315-4.288-.829-.025-1.685.713-2.615 2.256-1.616 2.63-2.72 5.658-3.288 9.01l-.227 2.025c-.146.866-.575 1.531-1.21 1.874-.468.253-.927.375-1.364.363-1.025-.031-1.58-.87-1.594-2.036-.01-.707-.01-1.384.003-2.067-1.35.91-3.191 1.785-4.404 2.368zm-2.4-12.85c.009-.197-.028-.504-.448-.89-.386-.355-.608-.516-1.156-.52-3.443-.025-5.93 4.897-5.433 5.363.299.28 1.053.332 1.81.337 1.062.008 1.993-.277 2.846-.872.86-.6 1.479-1.223 1.836-1.849.342-.6.525-1.128.545-1.568zm35.74 10.587c1.454.011 2.99-.957 4.567-2.878 1.674-2.041 2.562-3.95 2.638-5.673.044-.99-.315-1.781-1.095-2.42-.46-.367-1.1-.553-1.946-.559-.813-.006-1.563.296-2.294.922a7.524 7.524 0 0 0-1.962 2.657 21.923 21.923 0 0 0-1.179 3.217c-.268.989-.422 1.872-.455 2.625-.027.622.14 1.135.51 1.57.316.37.691.535 1.216.54zm40.725.37c1.454.01 2.99-.957 4.566-2.878 1.675-2.041 2.563-3.95 2.639-5.673.044-.99-.315-1.781-1.095-2.421-.461-.367-1.101-.552-1.947-.558-.813-.006-1.563.295-2.293.922a7.524 7.524 0 0 0-1.962 2.657 21.92 21.92 0 0 0-1.179 3.217c-.269.989-.422 1.872-.455 2.625-.028.622.14 1.135.51 1.57.316.369.69.535 1.216.539zm-47.538-18.57c-.157 1.787-1.268 1.994-2.721 1.914-1.453-.08-2.697-.417-2.54-2.204.158-1.787 1.463-3.171 2.916-3.091 1.453.08 2.503 1.594 2.345 3.38zM15.91 46.005c-6.033-.14-10.641-2.605-13.327-7.128-2.217-3.733-3.05-8.8-2.349-14.267.433-3.369 1.64-9.84 4.857-15.334C8.517 3.422 13.346.218 19.055.008c6.265-.233 9.724 2.412 11.523 4.67 2.803 3.518 3.12 7.742 2.896 9.485-.16 1.24-1.186 2.224-2.293 2.198-1.107-.025-2.652-1.142-2.354-2.358.847-3.449.642-9.948-10.117-10.001-4.3-.021-7.557 2.004-10.576 7.876-2.478 4.818-10.157 30.197 8.248 30.287 6.115.03 12.843-4.046 14.473-11.903.776-3.742-.125-4.96-1.97-5.083-1.625-.108-3.014.602-4.127 2.112.44 1.324.67 2.702.635 3.947-.029 1.005-.226 1.891-.586 2.634-.534 1.1-1.429 1.861-2.456 2.091-1.15.258-2.183-.212-2.764-1.258-.969-1.744-.489-4.68.562-7.16-.646-1.08-1.93-2.49-3.94-2.67-1.345-.12-2.604.486-3.05 3.358-.421 2.708-.59 7.587 3.906 6.805 1.221-.213 2.527 1.11 2.368 2.35-.16 1.24-1.186 2.223-2.293 2.198-5.826-.135-8.152-6.016-7.99-11.446.238-8.057 5.046-8.286 7.693-8.224 2.298.053 4.327 1.628 5.91 3.606 1.913-1.986 4.317-2.998 6.862-2.825 2.028.134 3.652 1.325 4.574 3.353.778 1.714 1.014 3.983.664 6.39-.574 3.937-2.587 7.804-5.526 10.61-2.455 2.345-6.776 5.108-13.418 4.954z"/></g></g></svg>